<svg width="68" height="34" viewBox="0 0 68 34" fill="none" xmlns="http://www.w3.org/2000/svg">
<path d="M12.888 9.384C12.888 7.336 12.048 6.312 10.368 6.312C9.68 6.312 9.096 6.472 8.616 6.792C8.136 7.112 7.896 7.568 7.896 8.16C7.896 8.528 7.992 8.792 8.184 8.952C8.392 9.096 8.68 9.216 9.048 9.312C9.416 9.392 9.672 9.464 9.816 9.528C9.96 9.576 10.088 9.68 10.2 9.84C10.328 10 10.392 10.232 10.392 10.536C10.392 10.84 10.272 11.096 10.032 11.304C9.792 11.496 9.496 11.592 9.144 11.592C8.52 11.592 7.936 11.32 7.392 10.776C6.848 10.232 6.576 9.584 6.576 8.832C6.576 7.808 7.016 6.8 7.896 5.808C8.792 4.8 9.856 4.296 11.088 4.296C12.32 4.296 13.256 4.672 13.896 5.424C14.552 6.176 14.88 7.168 14.88 8.4C14.88 10.32 14.144 12.568 12.672 15.144C11.216 17.72 9.736 19.592 8.232 20.76C7.896 21.016 7.608 21.144 7.368 21.144C6.84 21.144 6.456 20.832 6.216 20.208L3.528 13.152C3.208 12.336 2.864 11.488 2.496 10.608C2.128 9.712 1.856 9.048 1.68 8.616C1.504 8.184 1.328 7.744 1.152 7.296C0.864 6.512 0.72 5.944 0.72 5.592C0.72 5.224 0.808 4.92 0.984 4.68C1.16 4.424 1.408 4.296 1.728 4.296C2.288 4.296 2.704 4.624 2.976 5.28C3.024 5.408 3.152 5.8 3.36 6.456C5.264 12.12 6.848 16.296 8.112 18.984C9.328 17.912 10.424 16.472 11.4 14.664C12.392 12.84 12.888 11.08 12.888 9.384ZM20.1261 16.224L17.2701 15.984C16.9981 15.984 16.7821 16.008 16.6221 16.056C16.7181 16.968 17.1021 17.728 17.7741 18.336C18.4621 18.944 19.2701 19.248 20.1981 19.248C21.0941 19.248 21.9021 18.92 22.6221 18.264C22.8781 18.04 23.0701 17.928 23.1981 17.928C23.3261 17.928 23.4381 17.976 23.5341 18.072C23.6301 18.168 23.6781 18.272 23.6781 18.384C23.6781 18.848 23.2221 19.424 22.3101 20.112C21.4141 20.8 20.3901 21.144 19.2381 21.144C18.1021 21.144 17.1101 20.68 16.2621 19.752C15.4301 18.824 15.0141 17.672 15.0141 16.296C15.0141 14.536 15.6781 13.056 17.0061 11.856C18.3341 10.656 19.7981 10.056 21.3981 10.056C22.0701 10.056 22.6141 10.176 23.0301 10.416C23.4621 10.64 23.6781 10.936 23.6781 11.304C23.6781 11.656 23.5661 11.944 23.3421 12.168C23.1341 12.392 22.9261 12.504 22.7181 12.504C22.5101 12.504 22.1501 12.408 21.6381 12.216C21.1421 12.024 20.6621 11.928 20.1981 11.928C19.3341 11.928 18.5821 12.192 17.9421 12.72C17.3181 13.232 16.9021 13.872 16.6941 14.64L20.0061 14.448C20.7421 14.448 21.1101 14.736 21.1101 15.312C21.1101 15.92 20.7821 16.224 20.1261 16.224ZM18.6141 8.4C18.6141 8.304 18.6781 8.192 18.8061 8.064C20.4541 6.416 21.6541 5.592 22.4061 5.592C22.6461 5.592 22.8541 5.68 23.0301 5.856C23.2221 6.016 23.3181 6.216 23.3181 6.456C23.3181 6.984 23.0221 7.304 22.4301 7.416C21.1821 7.64 20.1021 8.024 19.1901 8.568C19.0621 8.648 18.9661 8.688 18.9021 8.688C18.7101 8.688 18.6141 8.592 18.6141 8.4ZM25.7481 19.248C25.7481 13.024 25.7081 9.304 25.6281 8.088C25.4841 5.88 25.4121 4.592 25.4121 4.224C25.4121 3.856 25.5161 3.56 25.7241 3.336C25.9481 3.112 26.2121 3 26.5161 3C26.8201 3 27.0681 3.112 27.2601 3.336C27.4521 3.56 27.5481 3.84 27.5481 4.176C27.5481 5.184 27.5081 6.552 27.4281 8.28C27.2681 12.344 27.1881 15.368 27.1881 17.352C27.1881 17.832 27.3401 18.296 27.6441 18.744C27.9641 19.176 28.1241 19.568 28.1241 19.92C28.1241 20.272 28.0041 20.568 27.7641 20.808C27.5241 21.032 27.2521 21.144 26.9481 21.144C26.1481 21.144 25.7481 20.512 25.7481 19.248ZM37.6963 16.896L37.4563 11.496C37.4563 11.064 37.5603 10.72 37.7683 10.464C37.9923 10.192 38.2563 10.056 38.5603 10.056C38.8643 10.056 39.1123 10.184 39.3043 10.44C39.4963 10.68 39.5923 11.016 39.5923 11.448C39.5923 11.864 39.5443 12.456 39.4483 13.224C39.2563 14.76 39.1603 16.136 39.1603 17.352C39.1603 17.832 39.3123 18.296 39.6163 18.744C39.9363 19.176 40.0963 19.568 40.0963 19.92C40.0963 20.272 39.9763 20.568 39.7363 20.808C39.4963 21.032 39.2243 21.144 38.9203 21.144C38.1203 21.144 37.7203 20.512 37.7203 19.248C36.9683 20.512 36.0243 21.144 34.8883 21.144C33.9763 21.144 33.2483 20.816 32.7043 20.16C32.1763 19.504 31.8083 18.704 31.6003 17.76L30.6883 13.632C30.5923 13.168 30.3763 12.76 30.0403 12.408C29.7203 12.04 29.5603 11.672 29.5603 11.304C29.5603 10.936 29.6883 10.64 29.9443 10.416C30.2003 10.176 30.5043 10.056 30.8563 10.056C31.6563 10.056 32.1763 10.688 32.4163 11.952L33.3283 16.968C33.6323 18.568 34.3923 19.368 35.6083 19.368C36.2003 19.368 36.6883 19.136 37.0723 18.672C37.4563 18.192 37.6643 17.6 37.6963 16.896ZM44.1769 20.376C44.0649 20.552 43.8969 20.728 43.6729 20.904C43.4489 21.064 43.2089 21.144 42.9529 21.144C42.6969 21.144 42.4729 21.056 42.2809 20.88C42.1049 20.688 42.0169 20.456 42.0169 20.184C42.0169 19.896 42.1289 19.616 42.3529 19.344C42.5769 19.072 42.9049 18.76 43.3369 18.408C43.7689 18.04 44.1049 17.728 44.3449 17.472C44.5849 17.216 45.1209 16.552 45.9529 15.48C44.9609 14.328 44.1049 13.4 43.3849 12.696C42.6649 11.992 42.3049 11.44 42.3049 11.04C42.3049 10.784 42.3929 10.56 42.5689 10.368C42.7609 10.16 43.0009 10.056 43.2889 10.056C43.7689 10.056 44.2169 10.336 44.6329 10.896C45.3049 11.808 46.1049 12.864 47.0329 14.064C48.6169 11.952 49.5209 10.76 49.7449 10.488C49.9849 10.2 50.2409 10.056 50.5129 10.056C51.0409 10.056 51.3049 10.32 51.3049 10.848C51.3049 11.2 51.0889 11.56 50.6569 11.928C49.9369 12.584 49.0009 13.648 47.8489 15.12C49.2089 16.88 50.2809 18.168 51.0649 18.984C51.4649 19.432 51.6649 19.808 51.6649 20.112C51.6649 20.4 51.5769 20.648 51.4009 20.856C51.2409 21.048 51.0329 21.144 50.7769 21.144C50.2969 21.144 49.8009 20.72 49.2889 19.872C48.7129 18.976 47.8809 17.856 46.7929 16.512C46.1049 17.472 45.5289 18.312 45.0649 19.032C44.6009 19.752 44.3049 20.2 44.1769 20.376Z" fill="black"/>
<path d="M6.224 31.096C6.304 30.7867 6.46667 30.552 6.712 30.392C6.68533 30.2853 6.672 30.1387 6.672 29.952C6.672 29.76 6.728 29.2507 6.84 28.424C7.03733 27.0533 7.136 25.992 7.136 25.24C7.136 25.08 7.12533 24.8613 7.104 24.584C7.50933 24.6053 7.80533 24.6693 7.992 24.776C8.072 24.8187 8.13333 24.8853 8.176 24.976C8.21867 25.0613 8.24267 25.1413 8.248 25.216C8.25867 25.2907 8.264 25.4267 8.264 25.624C8.264 25.8213 8.18133 26.4693 8.016 27.568C7.856 28.6613 7.76267 29.5227 7.736 30.152C9 30.152 9.936 30.0507 10.544 29.848C10.496 30.2427 10.376 30.5493 10.184 30.768C9.992 30.9867 9.752 31.096 9.464 31.096C9.37867 31.096 9.13867 31.072 8.744 31.024C8.35467 30.9813 7.94133 30.96 7.504 30.96C7.06667 30.96 6.64 31.0053 6.224 31.096ZM12.479 24.976C12.5217 25.0613 12.5457 25.1413 12.551 25.216C12.5617 25.2907 12.567 25.4267 12.567 25.624C12.567 25.8213 12.479 26.5227 12.303 27.728C12.127 28.9333 12.039 29.7787 12.039 30.264C12.039 30.744 12.0763 31.072 12.151 31.248C11.6977 31.1307 11.3883 30.976 11.223 30.784C11.0577 30.5867 10.975 30.3147 10.975 29.968C10.975 29.7653 11.031 29.2507 11.143 28.424C11.3403 27.0533 11.439 25.992 11.439 25.24C11.439 25.08 11.4283 24.8613 11.407 24.584C11.8123 24.6053 12.1083 24.6693 12.295 24.776C12.375 24.8187 12.4363 24.8853 12.479 24.976ZM15.365 33.048C16.2557 33.048 16.7623 32 16.885 29.904C16.6877 30.1867 16.4503 30.4027 16.173 30.552C15.8957 30.696 15.6103 30.768 15.317 30.768C14.805 30.768 14.365 30.56 13.997 30.144C13.629 29.728 13.445 29.1493 13.445 28.408C13.445 27.3893 13.709 26.504 14.237 25.752C14.493 25.384 14.8237 25.0933 15.229 24.88C15.6343 24.6613 16.0957 24.552 16.613 24.552C17.1357 24.552 17.533 24.688 17.805 24.96C18.0823 25.2267 18.221 25.5573 18.221 25.952C18.221 26.3467 18.0983 26.6587 17.853 26.888C17.6077 27.1173 17.317 27.232 16.981 27.232C16.7623 27.232 16.5543 27.1787 16.357 27.072C16.1597 26.9653 16.0077 26.8107 15.901 26.608C16.045 26.6453 16.181 26.664 16.309 26.664C16.597 26.664 16.8237 26.5813 16.989 26.416C17.1597 26.2507 17.245 26.064 17.245 25.856C17.245 25.648 17.1757 25.4773 17.037 25.344C16.8983 25.2053 16.701 25.136 16.445 25.136C16.109 25.136 15.8023 25.3093 15.525 25.656C15.253 25.9973 15.0477 26.4133 14.909 26.904C14.7703 27.3893 14.701 27.8933 14.701 28.416C14.701 28.9387 14.8023 29.3493 15.005 29.648C15.213 29.9413 15.4637 30.088 15.757 30.088C16.0503 30.088 16.3037 29.944 16.517 29.656C16.7357 29.368 16.845 28.9787 16.845 28.488C16.845 28.3653 16.837 28.24 16.821 28.112V28.088C16.9383 28.0773 17.061 28.072 17.189 28.072C17.4983 28.072 17.7117 28.1253 17.829 28.232C17.9517 28.3333 18.013 28.5093 18.013 28.76C18.013 30.3867 17.7223 31.656 17.141 32.568C16.9383 32.8827 16.6743 33.1387 16.349 33.336C16.0237 33.5333 15.6557 33.632 15.245 33.632C14.685 33.632 14.2637 33.488 13.981 33.2C13.7037 32.9173 13.565 32.592 13.565 32.224C13.565 31.856 13.6637 31.56 13.861 31.336C14.0583 31.1173 14.3037 31.008 14.597 31.008C14.757 31.008 14.933 31.0533 15.125 31.144C14.8423 31.5013 14.701 31.8773 14.701 32.272C14.701 32.5013 14.7543 32.688 14.861 32.832C14.9677 32.976 15.1357 33.048 15.365 33.048ZM22.4332 28.232L21.6652 28.224C21.3932 28.224 21.0679 28.232 20.6892 28.248C20.5665 29.1653 20.5052 29.8507 20.5052 30.304C20.5052 30.7573 20.5425 31.072 20.6172 31.248C20.1639 31.1307 19.8545 30.976 19.6892 30.784C19.5239 30.5867 19.4412 30.3147 19.4412 29.968C19.4412 29.7653 19.4972 29.2507 19.6092 28.424C19.6145 28.4027 19.6172 28.3893 19.6172 28.384C19.4572 28.4267 19.3292 28.4693 19.2332 28.512C19.2225 28.3947 19.2172 28.3067 19.2172 28.248C19.2172 27.8747 19.3879 27.6453 19.7292 27.56C19.8412 26.6107 19.8972 25.8373 19.8972 25.24C19.8972 25.08 19.8865 24.8613 19.8652 24.584C20.3985 24.6053 20.7345 24.7013 20.8732 24.872C20.9425 24.968 20.9852 25.0613 21.0012 25.152C21.0225 25.2373 21.0332 25.3787 21.0332 25.576C21.0332 25.768 20.9959 26.1147 20.9212 26.616C20.8465 27.112 20.8039 27.408 20.7932 27.504C21.6785 27.504 22.4412 27.4987 23.0812 27.488C23.1932 26.5707 23.2492 25.8213 23.2492 25.24C23.2492 25.08 23.2385 24.8613 23.2172 24.584C23.7505 24.6053 24.0839 24.7013 24.2172 24.872C24.2919 24.968 24.3372 25.0613 24.3532 25.152C24.3745 25.2373 24.3852 25.3787 24.3852 25.576C24.3852 25.768 24.2945 26.4773 24.1132 27.704C23.9372 28.9253 23.8492 29.7787 23.8492 30.264C23.8492 30.744 23.8865 31.072 23.9612 31.248C23.5079 31.1307 23.1985 30.976 23.0332 30.784C22.8732 30.592 22.7932 30.3467 22.7932 30.048C22.7932 29.7493 22.8465 29.208 22.9532 28.424L23.0012 28.08C22.8839 28.1813 22.6945 28.232 22.4332 28.232ZM25.1053 25.232C25.116 25.024 25.1373 24.864 25.1693 24.752C25.7453 24.848 26.436 24.896 27.2413 24.896C28.0466 24.896 28.8893 24.8 29.7693 24.608C29.6786 25.2853 29.3346 25.656 28.7373 25.72C28.5506 25.7467 28.2626 25.7733 27.8733 25.8C27.8626 25.9547 27.7746 26.632 27.6093 27.832C27.444 29.0267 27.3613 29.8507 27.3613 30.304C27.3613 30.7573 27.3986 31.072 27.4733 31.248C27.02 31.1307 26.7106 30.976 26.5453 30.784C26.38 30.5867 26.2973 30.344 26.2973 30.056C26.2973 29.768 26.364 29.144 26.4973 28.184C26.636 27.2187 26.7186 26.4427 26.7453 25.856C26.3133 25.8773 25.8893 25.888 25.4733 25.888C25.228 25.888 25.1053 25.6693 25.1053 25.232ZM34.0337 24.976C34.0764 25.0613 34.1004 25.1413 34.1057 25.216C34.1164 25.2907 34.1217 25.4267 34.1217 25.624C34.1217 25.8213 34.0337 26.5227 33.8577 27.728C33.6817 28.9333 33.5937 29.7787 33.5937 30.264C33.5937 30.744 33.631 31.072 33.7057 31.248C33.2524 31.1307 32.943 30.976 32.7777 30.784C32.6124 30.5867 32.5297 30.3147 32.5297 29.968C32.5297 29.7653 32.5857 29.2507 32.6977 28.424C32.895 27.0533 32.9937 25.992 32.9937 25.24C32.9937 25.08 32.983 24.8613 32.9617 24.584C33.367 24.6053 33.663 24.6693 33.8497 24.776C33.9297 24.8187 33.991 24.8853 34.0337 24.976ZM34.8397 25.232C34.8504 25.024 34.8717 24.864 34.9037 24.752C35.4797 24.848 36.1704 24.896 36.9757 24.896C37.781 24.896 38.6237 24.8 39.5037 24.608C39.413 25.2853 39.069 25.656 38.4717 25.72C38.285 25.7467 37.997 25.7733 37.6077 25.8C37.597 25.9547 37.509 26.632 37.3437 27.832C37.1784 29.0267 37.0957 29.8507 37.0957 30.304C37.0957 30.7573 37.133 31.072 37.2077 31.248C36.7544 31.1307 36.445 30.976 36.2797 30.784C36.1144 30.5867 36.0317 30.344 36.0317 30.056C36.0317 29.768 36.0984 29.144 36.2317 28.184C36.3704 27.2187 36.453 26.4427 36.4797 25.856C36.0477 25.8773 35.6237 25.888 35.2077 25.888C34.9624 25.888 34.8397 25.6693 34.8397 25.232ZM47.0561 24.976C47.0987 25.0613 47.1227 25.1413 47.1281 25.216C47.1387 25.2907 47.1441 25.4267 47.1441 25.624C47.1441 25.8213 47.0561 26.5227 46.8801 27.728C46.7041 28.9333 46.6161 29.7787 46.6161 30.264C46.6161 30.744 46.6534 31.072 46.7281 31.248C46.2747 31.1307 45.9654 30.976 45.8001 30.784C45.6347 30.5867 45.5521 30.3147 45.5521 29.968C45.5521 29.8613 45.5547 29.7787 45.5601 29.72C45.0747 30.68 44.4107 31.16 43.5681 31.16C43.1201 31.16 42.7841 31.008 42.5601 30.704C42.3361 30.3947 42.2241 29.9067 42.2241 29.24C42.2241 28.8613 42.2827 28.1787 42.4001 27.192C42.5227 26.2053 42.5841 25.5653 42.5841 25.272C42.5841 24.9733 42.5547 24.744 42.4961 24.584C42.9387 24.696 43.2427 24.8453 43.4081 25.032C43.5787 25.2133 43.6641 25.472 43.6641 25.808C43.6641 26.1387 43.6107 26.6693 43.5041 27.4C43.3974 28.1253 43.3441 28.712 43.3441 29.16C43.3441 29.6027 43.4081 29.9173 43.5361 30.104C43.6641 30.2907 43.8427 30.384 44.0721 30.384C44.3441 30.384 44.6081 30.264 44.8641 30.024C45.3867 29.528 45.7281 28.576 45.8881 27.168V27.152C45.9734 26.4107 46.0161 25.8667 46.0161 25.52C46.0161 25.1733 46.0054 24.8613 45.9841 24.584C46.3894 24.6053 46.6854 24.6693 46.8721 24.776C46.9521 24.8187 47.0134 24.8853 47.0561 24.976ZM49.1991 31.136C48.8951 31.136 48.6765 31.0827 48.5431 30.976C48.4098 30.8693 48.3431 30.6907 48.3431 30.44C48.3431 30.1893 48.4311 29.432 48.6071 28.168C48.7885 26.8987 48.8791 25.9947 48.8791 25.456C48.8791 24.912 48.8418 24.5573 48.7671 24.392C49.3111 24.4347 49.6685 24.648 49.8391 25.032C50.2498 24.808 50.7005 24.696 51.1911 24.696C51.6871 24.696 52.0765 24.8507 52.3591 25.16C52.6471 25.464 52.7911 25.84 52.7911 26.288C52.7911 26.8427 52.5885 27.344 52.1831 27.792C51.9858 28.0053 51.7298 28.1787 51.4151 28.312C51.1058 28.4453 50.7618 28.512 50.3831 28.512C50.2231 28.512 50.0711 28.5013 49.9271 28.48L49.9031 28.144C49.9245 28.144 49.9458 28.144 49.9671 28.144C50.5698 28.144 51.0498 27.92 51.4071 27.472C51.6525 27.152 51.7751 26.816 51.7751 26.464C51.7751 25.9467 51.5645 25.6053 51.1431 25.44C50.7858 25.3067 50.3858 25.3333 49.9431 25.52V25.536C49.9431 25.7387 49.8658 26.4027 49.7111 27.528C49.5618 28.648 49.4871 29.584 49.4871 30.336C49.4871 30.672 49.5031 30.9333 49.5351 31.12C49.3645 31.1307 49.2525 31.136 49.1991 31.136Z" fill="black"/>
<path fill-rule="evenodd" clip-rule="evenodd" d="M57.04 6.303C57.0786 6.213 57.1427 6.13631 57.2245 6.08245C57.3063 6.02858 57.4021 5.99991 57.5 6H62.5C62.7 6 62.88 6.12 62.96 6.303L65.96 13.303C65.9893 13.3715 66.0029 13.4456 65.9998 13.52C65.9967 13.5944 65.9771 13.6672 65.9423 13.733C65.9075 13.7989 65.8584 13.8561 65.7987 13.9006C65.739 13.945 65.6701 13.9756 65.597 13.99H65.595C65.445 14.0193 65.295 14.0463 65.145 14.071C63.6086 14.3221 62.0564 14.4641 60.5 14.496V19.5C60.5 19.6326 60.4473 19.7598 60.3536 19.8536C60.2598 19.9473 60.1326 20 60 20C59.8674 20 59.7402 19.9473 59.6464 19.8536C59.5527 19.7598 59.5 19.6326 59.5 19.5V14.495C57.9436 14.4631 56.3914 14.3211 54.855 14.07C54.705 14.046 54.555 14.0193 54.405 13.99H54.402C54.3289 13.9755 54.26 13.9448 54.2003 13.9003C54.1405 13.8557 54.0915 13.7983 54.0568 13.7324C54.0221 13.6664 54.0026 13.5936 53.9997 13.5191C53.9968 13.4446 54.0106 13.3705 54.04 13.302L57.04 6.302V6.303Z" fill="black"/>
<path d="M58.493 18.574C58.5147 18.7047 58.4836 18.8388 58.4065 18.9466C58.3294 19.0544 58.2127 19.1272 58.082 19.149C57.37 19.267 56.802 19.444 56.427 19.642C56.289 19.7079 56.1638 19.7976 56.057 19.907C56.0359 19.9292 56.0184 19.9545 56.005 19.982L56.004 19.986L56 19.996V20L56.002 20.008L56.018 20.041C56.0572 20.0991 56.1063 20.1499 56.163 20.191C56.328 20.321 56.598 20.461 56.976 20.586C57.727 20.836 58.796 21 60 21C61.204 21 62.273 20.837 63.024 20.586C63.402 20.46 63.672 20.321 63.837 20.191C63.8941 20.1499 63.9435 20.0992 63.983 20.041L63.998 20.008L64 20V19.996C63.9865 19.9628 63.9672 19.9324 63.943 19.906C63.8361 19.797 63.7109 19.7076 63.573 19.642C63.197 19.444 62.63 19.267 61.918 19.149C61.8517 19.14 61.7878 19.1178 61.7303 19.0837C61.6727 19.0496 61.6225 19.0042 61.5828 18.9504C61.5431 18.8965 61.5145 18.8352 61.4989 18.7702C61.4833 18.7051 61.4809 18.6375 61.4919 18.5715C61.5029 18.5055 61.527 18.4423 61.5629 18.3858C61.5987 18.3293 61.6455 18.2805 61.7005 18.2424C61.7556 18.2043 61.8177 18.1777 61.8832 18.164C61.9487 18.1504 62.0163 18.15 62.082 18.163C62.852 18.29 63.534 18.491 64.039 18.757C64.5 19 65 19.4 65 20C65 20.426 64.74 20.752 64.456 20.977C64.166 21.205 63.776 21.39 63.34 21.535C62.462 21.828 61.281 22 60 22C58.719 22 57.538 21.828 56.66 21.535C56.224 21.39 55.834 21.205 55.544 20.977C55.26 20.752 55 20.426 55 20C55 19.401 55.5 19 55.961 18.757C56.466 18.491 57.148 18.29 57.918 18.163C58.0487 18.1413 58.1827 18.1724 58.2906 18.2495C58.3984 18.3266 58.4712 18.4433 58.493 18.574Z" fill="black"/>
</svg>
